# xmcd
#
# Track frame offsets:
#	150
#	21065
#	41945
#	61607
#	85397
#	106381
#	121745
#	142779
#	164687
#
# Disc length: 2586 seconds
#
# Revision: 1
# Processed by: cddbd v1.5.2PL0 Copyright (c) Steve Scherf et al.
# Submitted via: audiograbber 1.83.01
#
DISCID=6f0a1809
DTITLE=King Porter Stomp - Shuffle
DYEAR=2012
DGENRE=Funk
TTITLE0=The Shuffle
TTITLE1=Mileage (Feat.MC Elemental)
TTITLE2=Thick and Thin
TTITLE3=Breathless
TTITLE4=Let It All Out
TTITLE5=Less Fortunate
TTITLE6=The Last Bat Train To Cuba
TTITLE7=Hot Coals
TTITLE8=Mama Needs A Hand (Feat.Faye Houston)
EXTD=
EXTT0=
EXTT1=
EXTT2=
EXTT3=
EXTT4=
EXTT5=
EXTT6=
EXTT7=
EXTT8=
PLAYORDER=
